<svg xmlns="http://www.w3.org/2000/svg" width="381.3" height="122"><g fill="#131A26"><path d="M180.1 98.9h-11.7s-.1 0-.1-.1l-10.1-12.3-10.1 12.3-.1.1h-9.3c-.1 0-.1 0-.1-.1v-.2l14.8-18.2-14.6-18v-.2l.1-.1h11.7s.1 0 .1.1l8.8 10.9 9-10.9.1-.1h9.5c.1 0 .1 0 .1.1v.2l-13.9 16.7 15.9 19.5v.2c0 .1 0 .1-.1.1m63.2-30.2c-5.2 0-8.7 3.1-9.7 8.6h17.6v-.4c0-4.3-3.3-8.2-7.9-8.2m16.9 14.2l-.1.1h-26.7c.6 6.2 4.6 9.8 11.1 9.8 4 0 8.3-1.4 14.3-4.6.1-.1.2 0 .2.2v8.2c0 .1 0 .1-.1.1-5.6 2.4-11.3 4-15.7 4-11.5 0-19.8-8.4-19.8-19.9 0-11.5 8.3-19.9 19.8-19.9 10.5 0 17.2 7.1 17.2 16.8.1 1.4-.2 5-.2 5.2m54.2-28.2c-3.3 0-5.9-2.6-5.9-5.8 0-3.3 2.7-6 5.9-6 3.3 0 5.9 2.7 5.9 6 .1 3.1-2.6 5.8-5.9 5.8m-4.8 44.2c-.1 0-.1-.1-.1-.2V62.4c0-.1 0-.1.1-.1h9.6c.1 0 .1.1.1.1v36.4c0 .1-.1.2-.1.2h-9.6zm-111.8-5.5c-1.8 0-3.5-.2-5.6-.8V69.3c2.4-.8 4.5-1.1 6.5-1.1 6.7 0 11.2 4.9 11.2 12.3 0 7.8-4.7 12.9-12.1 12.9m2.6-32.7c-2.7 0-5.5.5-8.3 1.5h-9.6c-.1 0-.1.1-.1.1V122c2.9-.4 6.4-1.4 9.9-3.9V100c2.4.3 4.3.6 6.2.6 13.1 0 21.7-7.9 21.7-20.1-.1-11.6-8.2-19.8-19.8-19.8m91.7 29.7c-3 1.6-5.7 2.3-8.2 2.3-6 0-9.5-4.2-9.5-11.2 0-8.1 4.6-13.4 11.6-13.4 1.9 0 3.8.5 6.1 1.5v20.8zm0-47.4v19c-2.8-.8-5.3-1.2-7.8-1.2-11.4 0-20.1 8.6-20.1 20.1 0 11.4 7.6 19.6 18.1 19.6 3.6 0 7-.9 11-3v3.3c2.6-.5 5.7-1.6 8.7-3.7v-58c-2.9.4-6.4 1.4-9.9 3.9m60.7 47.3c-2.9 1.7-5.4 2.5-7.6 2.5-6.4 0-10.2-4.2-10.2-11.3 0-8 4.5-13.4 11.2-13.4 1.8 0 4 .7 6.6 2.1v20.1zm9.9-28.5c0-.2-.2-.4-.4-.4h-7.8c-.2 0-.4.2-.4.4v1.3h-.2c-3.6-1.6-6.7-2.3-9.7-2.3-10.8 0-19.2 8.9-19.2 20.4 0 11.6 7.6 19.3 18.8 19.3 3 0 6.9-.2 10.5-4.4v4.7c2.6-.5 5.6-1.6 8.4-3.7V61.8zM112.1 89.7h24.2c-.4 2.7-1.3 5.9-3.4 9.1h-25.1c-3.1 0-5.6-2.4-5.9-5.4V45.5c.3-3 2.8-5.4 5.9-5.4h28.5c-.4 2.7-1.3 5.9-3.4 9.1h-20.7v13h20.5c.1 0 .2.1.2.1v9c0 .1-.1.1-.2.1h-20.5v18.3h-.1z"/><path d="M180.1 98.9h-11.8l-10-12.3-10.1 12.3h-9.4c-.1 0-.1 0-.1-.1v-.2l14.8-18.2-14.6-18v-.2l.1-.1h11.7s.1 0 .1.1l8.8 10.9 9-10.9.1-.1h9.5c.1 0 .1 0 .1.1v.2l-13.9 16.7 15.9 19.5s.1.1 0 .2-.1.1-.2.1m63.2-30.2c-5.2 0-8.7 3.1-9.7 8.6h17.6v-.4c0-4.3-3.3-8.2-7.9-8.2m16.9 14.2l-.1.1h-26.7c.5 6.2 4.6 9.8 11.1 9.8 4 0 8.3-1.4 14.3-4.6.1-.1.2 0 .2.2v8.2c0 .1 0 .1-.1.1-5.6 2.4-11.3 4-15.7 4-11.5 0-19.8-8.4-19.8-19.9 0-11.5 8.3-19.9 19.8-19.9 10.5 0 17.2 7.1 17.2 16.8.1 1.4-.2 5-.2 5.2m54.2-28.2c-3.3 0-5.9-2.6-5.9-5.8 0-3.3 2.7-6 5.9-6 3.3 0 5.9 2.7 5.9 6 .1 3.1-2.6 5.8-5.9 5.8m-4.8 44.2c-.1 0-.1-.1-.1-.1V62.4c0-.1 0-.1.1-.1h9.6c.1 0 .1.1.1.1v36.4c0 .1-.1.1-.1.1h-9.6zm-111.8-5.5c-1.7 0-3.5-.2-5.6-.8V69.3c2.4-.8 4.5-1.1 6.5-1.1 6.7 0 11.2 4.9 11.2 12.3 0 7.8-4.7 12.9-12.1 12.9m2.6-32.7c-2.7 0-5.5.5-8.3 1.5h-9.6c-.1 0-.1.1-.1.2V122c2.9-.4 6.4-1.4 9.9-3.9V100c2.4.3 4.3.6 6.2.6 13.1 0 21.7-7.9 21.7-20.1-.1-11.6-8.2-19.8-19.8-19.8m91.7 29.7c-3 1.6-5.7 2.3-8.2 2.3-6 0-9.5-4.2-9.5-11.3 0-8.1 4.6-13.4 11.6-13.4 1.9 0 3.8.5 6.1 1.5v20.9zm0-47.4v19c-2.8-.8-5.3-1.2-7.8-1.2-11.4 0-20.1 8.6-20.1 20.1 0 11.4 7.6 19.6 18.1 19.6 3.6 0 7-.9 11-3v3.3c2.6-.5 5.7-1.6 8.7-3.7v-58c-2.9.4-6.4 1.3-9.9 3.9m60.7 47.3c-2.9 1.7-5.4 2.5-7.6 2.5-6.4 0-10.2-4.2-10.2-11.3 0-8 4.5-13.4 11.2-13.4 1.8 0 4 .7 6.6 2.1v20.1zm9.9-28.5c0-.2-.2-.4-.4-.4h-7.8c-.2 0-.4.2-.4.4v1.3h-.2c-3.6-1.6-6.7-2.3-9.7-2.3-10.8 0-19.2 8.9-19.2 20.4 0 11.6 7.6 19.3 18.8 19.3 3 0 6.9-.2 10.5-4.4v4.7c2.6-.5 5.6-1.6 8.4-3.7V61.8zM112.2 89.7h24.2c-.4 2.7-1.3 5.9-3.4 9.1h-25.1c-3.1 0-5.6-2.4-5.9-5.4V45.5c.3-3 2.8-5.4 5.9-5.4h28.5c-.4 2.7-1.3 5.9-3.4 9.1h-20.7v13h20.5c.1 0 .2.1.2.1v9c0 .1-.1.1-.2.1h-20.5v18.3h-.1zM373 60.8h1.1c1.3 0 1.8-.4 1.8-1.2 0-.9-.6-1.3-1.9-1.3h-1v2.5zm1.3-3.5c2.2 0 3.4.8 3.4 2.2 0 1.2-.6 1.9-1.8 2.2l1.8 3.6h-1.9l-1.6-3.3H373v3.3h-1.7v-7.9h3zM370 57c-1.2 1.2-1.8 2.7-1.8 4.3 0 1.6.6 3.1 1.7 4.2 1.2 1.2 2.7 1.8 4.2 1.8 1.7 0 3.2-.6 4.4-1.8 1.1-1.1 1.8-2.6 1.8-4.2 0-1.7-.6-3.2-1.7-4.3-1.2-1.2-2.6-1.8-4.3-1.8-1.8.1-3.2.7-4.3 1.8m9.2-.6c1.3 1.3 2 3.1 2 5 0 2-.7 3.7-2.1 5-1.4 1.4-3.2 2.1-5 2.1-1.9 0-3.7-.8-5-2.1-1.3-1.4-2.1-3.1-2.1-5s.8-3.7 2.1-5.1c1.3-1.3 3-2 4.9-2 2.1 0 3.9.7 5.2 2.1m-328.4-7l-1.7-4.9-14.9-19.9 2.7-.7L62.5 46l15.1-4.3c1.8-.5 3.8-.6 5.3-.5C78.1 31 69.4 22.6 58 18.5c-22.6-8.1-47.4 3.8-55.5 26.4C0 51.9-.6 59.1.5 66l36.1-12.5 14.2-4.1zm33.6-4.3c-1.3.8-3.3 2-5.2 2.6L64.1 52l-10 32.3-2.6.9 2.1-24.7-1.2-5.1-14.1 4L.9 68.2c3 14.4 13.1 26.9 28 32.2 22.6 8.1 47.4-3.8 55.5-26.4 3.4-9.7 3.2-19.9 0-28.9M82 99.7c-2.4 0-3.9-1.9-3.9-4.1 0-2.4 1.7-4.2 3.9-4.2s3.8 1.7 3.8 4.2c0 2.4-1.7 4.1-3.8 4.1m0-8.8c-2.4 0-4.5 1.8-4.5 4.6 0 2.6 1.9 4.6 4.5 4.6 2.4 0 4.5-1.8 4.5-4.6s-2.1-4.6-4.5-4.6"/><path d="M80.9 95.1v-1.7H82c.6 0 1.3.1 1.3.8 0 .8-.6.9-1.3.9h-1.1zm3.2-.8c0-1.1-.7-1.6-2-1.6H80v5.5h.9v-2.3h.8l1.4 2.3h1l-1.5-2.4c.9-.1 1.5-.5 1.5-1.5"/></g></svg>