<svg xmlns="http://www.w3.org/2000/svg" width="595.3" height="122.1" viewBox="0 359.9 595.3 122.1"><path fill="#131A26" d="M118.3 365.5c-14.2-8.9-33-6.8-49.8 3.7-16.7-10.6-35.4-12.6-49.7-3.7-22.5 14.1-25.3 50.3-6.1 80.9C26.8 469 48.9 482.3 68.5 482c19.7.2 41.7-13 55.8-35.6 19.2-30.6 16.5-66.8-6-80.9zM23.1 440c-4-6.2-6.9-13.1-8.8-20.3-1.7-6.2-2.4-12.6-1.9-19 .9-11.3 5.5-20.1 13-24.9 7.5-4.7 17.5-5 28-.8 1.6.6 3.2 1.4 4.7 2.2-5.9 5.4-11 11.5-15.2 18.2-11.6 18.6-15.2 39.3-11.1 55.8-3.3-3.4-6.2-7.2-8.7-11.2zm99.8-20.3c-1.9 7.2-4.9 13.9-8.8 20.3-2.5 4-5.4 7.8-8.6 11.3 3.6-14.8 1.1-32.9-7.8-49.9-.3-.6-.8-1-1.4-1.1s-1.3-.1-1.8.3l-27.7 17.3c-.5.3-.9.9-1 1.4-.1.6 0 1.2.3 1.7l4.1 6.5c.3.5.8.9 1.4 1 .6.1 1.2 0 1.7-.3l18-11.2c.6 1.7 1.1 3.5 1.6 5.2 1.7 6.2 2.4 12.6 1.9 19-.9 11.3-5.5 20.1-13 24.9-3.9 2.4-8.3 3.7-12.9 3.7h-.6c-4.5-.1-9-1.4-12.9-3.7-7.5-4.7-12.1-13.5-13-24.9-.4-6.4.2-12.9 1.9-19 3.9-14.4 11.9-27.2 23.1-37.1 4.8-4.2 10.3-7.6 16.3-10.1 10.6-4.2 20.5-4 28 .8 7.5 4.7 12.1 13.5 13 24.9.5 6.4-.2 12.8-1.8 19zM266 406.2c-14.6 0-26.4 11.3-26.4 25.9 0 14.4 11.8 25.6 26.4 25.6 14.7 0 26.4-11.2 26.4-25.6.1-14.5-11.7-25.9-26.4-25.9zm0 37.9c-6.8 0-11.9-5.5-11.9-12.1s5.1-12.2 11.9-12.2c6.8 0 11.9 5.5 11.9 12.3 0 6.7-5.1 12-11.9 12zm59.3-57.8h-26.8c-.6 0-1.1.2-1.6.6-.4.4-.6 1-.6 1.6v65.4c-.1.6.1 1.2.6 1.7s1 .7 1.6.7h26.8c21.5 0 36.3-14.3 36.3-35 .1-21-14.8-35-36.3-35zm.6 56.1h-14.7v-42.3h14.7c11.9 0 20 8.9 20 21 .1 12.1-8.1 21.3-20 21.3zm89.2-34.8H405c-1.1.1-2.1 1-2.1 2.2v3c-2.3-3.8-7.5-6.6-13.9-6.6-12.6 0-24.3 9.9-24.3 25.6 0 15.7 11.7 25.8 24.3 25.8 6.5 0 11.8-2.8 14.1-6.6v3.1c0 1.1.9 2.1 2.1 2.1h10.1c.6 0 1.1-.2 1.5-.6.4-.4.6-.9.6-1.5v-44.3c0-.6-.2-1.1-.6-1.6-.6-.4-1.2-.6-1.7-.6zm-23.5 36.6c-6.7 0-11.7-5.1-11.7-12.3 0-7.2 5-12.2 11.7-12.2s11.7 5.1 11.7 12.2-5 12.3-11.7 12.3zm80.1-57.9h-10.1c-.6 0-1.1.2-1.5.6-.4.4-.6.9-.6 1.5v24.1c-2.3-3.6-7.6-6.4-14.1-6.4-12.5 0-24.1 9.9-24.1 25.6 0 15.7 11.7 25.8 24.3 25.8 6.5 0 11.3-2.8 14.1-6.6v3.1c0 1.1.9 2.1 2.1 2.1h10.1c.6 0 1.1-.2 1.5-.6s.6-.9.6-1.5v-65.6c0-.6-.2-1.1-.6-1.5-.7-.4-1.2-.6-1.7-.6zm-23.5 58.1c-6.7 0-11.6-5.2-11.6-12.4s5-12.4 11.6-12.4 11.6 5.2 11.6 12.4-4.9 12.4-11.6 12.4zm80.1-58.1h-10.1c-.6 0-1.1.2-1.5.6-.4.4-.6.9-.6 1.5v24.1c-2.3-3.6-7.6-6.4-14.1-6.4-12.5 0-24.1 9.9-24.1 25.6 0 15.7 11.7 25.8 24.3 25.8 6.5 0 11.3-2.8 14.1-6.6v3.1c0 1.1.9 2.1 2.1 2.1h10.1c.6 0 1.1-.2 1.5-.6.4-.4.6-.9.6-1.5v-65.6c0-.6-.2-1.1-.6-1.5-.5-.4-1.2-.6-1.7-.6zm-23.5 58.1c-6.7 0-11.6-5.2-11.6-12.4s5-12.4 11.6-12.4 11.6 5.2 11.6 12.4-4.9 12.4-11.6 12.4zm78.7-33.4l-15.1 51.6c-2.9 9.2-9.4 14.7-19.5 14.7-4.6 0-8.8-.9-12.1-2.8-1.9-1.1-3.5-2.1-3.5-3.7 0-1 .3-1.5.9-2.4l3-4.5c.9-1.2 1.4-1.7 2.4-1.7.7 0 1.4.3 2 .7 1.9 1.2 3.6 2.2 6.2 2.2 3.1 0 5.5-1 6.8-4.7l1.3-4.3h-6.1c-1.5 0-2.3-.9-2.7-2.1l-13.4-43c-.5-1.7-.1-3.4 2.4-3.4h10.6c1.3 0 2.2.4 2.8 2.3l9.9 34.7 9.3-34.8c.3-1.2 1.1-2.3 2.7-2.3h10.1c2.1.1 2.6 1.5 2 3.5zm-347.7 15.3v27.6c0 .6-.2 1.2-.6 1.7-.4.4-1 .6-1.7.6h-8.3c-.6 0-1.2-.2-1.7-.6-.4-.4-.6-1-.6-1.7v-7.3c-5.3 6.7-14.4 10.8-24.9 10.8-19.5 0-34.8-14.7-34.8-35.6 0-21.7 16.4-36.7 37.3-36.7 15.4 0 27.7 6.6 33.1 19.9.1.4.2.7.2 1.1 0 .6-.4 1.1-1.7 1.6l-9.7 3.8c-.6.2-1.2.3-1.9 0-.5-.3-.9-.8-1.1-1.4-3.5-6.6-9.7-11.1-19.2-11.1-12.4 0-21.3 9.7-21.3 22.2 0 12.1 7.5 22.2 21.6 22.2 7.4 0 13.3-3.5 16-7.3h-8.8c-.6 0-1.2-.2-1.7-.6s-.6-1-.6-1.7v-7.4c0-.6.2-1.2.6-1.7.4-.4 1-.6 1.7-.6h25.7c.6 0 1.1.2 1.6.6.6.5.8 1.1.8 1.6zm347.9-28.9v-.6c0-.1 0-.1.1-.1l.1-.1h4.2c.1 0 .1 0 .1.1l.1.1v.6c0 .1 0 .1-.1.1l-.1.1h-1.6v4.2c0 .1-.1.1-.1.1h-.8c-.1 0-.1 0-.1-.1l-.1-.1v-4.2h-1.5l-.2-.1c.1.1 0 .1 0 0zm7.5-.7l1.1 2.7 1.1-2.7c0-.1.1-.1.1-.1.1 0 .1-.1.1 0h1.4c.1 0 .1 0 .1.1l.1.1v5c0 .1 0 .1-.1.1l-.1.1h-.8c-.1 0-.1 0-.1-.1l-.1-.1V398l-1.2 2.8c0 .1-.1.1-.1.1-.1 0-.1.1-.1 0h-.7c-.1 0-.1-.1-.1-.1l-1.2-2.8v3.8c0 .1 0 .1-.1.1l-.1.1h-.6c-.1 0-.1 0-.1-.1l-.1-.1v-5c0-.1 0-.1.1-.1l.1-.1h1.4c-.1 0 0 .1 0 .1z"/></svg>