<svg xmlns="http://www.w3.org/2000/svg" width="2336.7" height="660.6"><switch><g><g fill-rule="evenodd" clip-rule="evenodd" fill="#191919"><path d="M1292.3 308v-43.2c7.7-2.2 235.5-3.3 261.8-1.1 3.9 10.9 8 22.3 12.8 35.7 4.8-13.2 8.8-24.4 13-35.8h262v44.6h-137.6v-33.7l-2.1-.3c-4.1 11.4-8.3 22.7-12.4 34.2h-245.5c-4.3-11.8-8.4-23.4-12.6-34.9h-1.6v33.3c-8.4 2.4-120.1 3.2-137.8 1.2zM650.7 88.5h488.6c8.3 13.6 14.2 28.5 18.1 45H650.7v-45zm-.6 482.5v-40.2c0-1.3.4-2.5.7-4.4h506.5c-3.9 16.3-9.8 31.1-18.1 44.6H650.1zm452.3 42.7c-16.9 17.5-36.9 28.8-59.3 36.4-17.8 6-36.2 8.8-55 8.8h-328c-2.9 0-5.9-.3-9.4-.5v-44.6c150.8-.1 301.3-.1 451.7-.1zm0-567.9H650.6V1.1c3.2-.2 6.1-.6 9-.6C769.2.5 878.8.3 988.4.6c39.5.1 75.2 12.6 106.6 36.8 2.8 2.2 5.5 4.6 8.2 6.9-.2.5-.5 1-.8 1.5zm35.3 218.8c-4.5 9.8-11.2 18-18.1 26-15.7 18.3-15.8 18.3-39.7 18.3H742.5v-44.2c7.7-2.2 385.8-2.4 395.2-.1zm.5 131.2H742.3c-.2-3.4-.4-6.3-.4-9.3v-35.3c3.5-.3 6-.7 8.6-.8 114.3 0 228.6 0 342.9-.1 5.4 0 9.8 1.1 13.3 5.2 9.2 10.9 18.5 21.8 27.6 32.8 1.5 2 2.3 4.5 3.9 7.5zm-854.3-350V2.2c7.5-2.1 298.3-3 318.5-1 2.2 6.9 2.7 31.9.7 44.7-105.9-.1-212-.1-319.2-.1zm-.2 42.9h320v44.7H283.8c-.3-14.5-.2-29-.1-44.7zm320.6 525.8v34.6c0 2.9-.3 5.8-.5 9.2H284.4v-43.7c7.5-2 309.4-2.3 319.9-.1zM284 571v-43.5c7.4-2.1 307.2-2.7 319.7-.5v44H284zm916.1-437.5V95.4c0-2 .2-3.9.4-6.5h293c5 14.5 10.1 29.2 15.4 44.7-103.5-.1-205.6-.1-308.8-.1zm425.9-.4c.1-1.3 0-2.6.4-3.8 4.6-13.5 9.4-26.9 14.2-40.7H1933v43.8c-6.6 2-293.1 2.8-307 .7zm-425.5-87.3c-.2-3.8-.4-7-.4-10.3-.1-11.2 0-22.5 0-34.4h262.8c5.1 14.7 10.2 29.3 15.5 44.7h-277.9zm454.9-.1c5.4-15.6 10.4-29.9 15.6-44.7h260.9c2.2 6.6 2.8 30.5.8 44.7h-277.3zm-363 174.6v-43.9h231.3c4.9 14 10 28.6 15.1 43.3-7.7 2.3-234.6 2.8-246.4.6zm549-44.1v45c-27.2.9-54.4.3-81.5.4-27.3.1-54.6 0-81.9 0h-83.6c5.5-16.1 10.6-30.7 15.6-45.4h231.4zm91.8 350.2v44.5h-229v-44.4c76.7-.1 152.5-.1 229-.1zm-504.3 0v44.5H1200v-44.6c76.9.1 152.6.1 228.9.1zm.1 87.3v44.5h-228.9v-44.5H1429zm504.7 44.5h-228.9v-44.5h228.9v44.5zM1674.8 351c-5.4 15.5-10.5 30.1-15.7 44.9h-184.4c-5.2-14.8-10.3-29.4-15.7-44.9h215.8zm-518.2 87.8c4.2 14.6 6.2 29 5.7 44.5h-153.2v-44.5h147.5zm5.8-262.1c.4 15.3-1.7 29.6-5.8 44.2h-147.4v-43.6c7.2-1.9 138.5-2.5 153.2-.6zm465.9 307h-122.7c-5.1-14.6-10.4-29.5-15.9-45.1h154.4c-5.4 15.4-10.6 30.2-15.8 45.1zm-886.1-.2v-44.6h137.2c0 14.6.3 29.3-.2 44.6h-137zm550 0v-44.6H1428c2 7.2 2.2 34.1.3 44.6h-136.1zm412.6-.1v-44.7h136.5v43.8c-7.3 1.9-117.1 2.7-136.5.9zm-412.5-88.2v-44.1h137.2c.2 14.4.1 28.9 0 43.3-7.2 2.4-123.4 3-137.2.8zm-550-174.9v-43.9h136.4v43.4c-6.5 2.2-123.6 2.8-136.4.5zm962.6 130.6h136.6c.7 14.7.3 29.5.2 44.8h-136.8v-44.8zm-1192.8.2v44.7H375.9v-44.7h136.2zm-135.6-87.5h134.4c2.4 6.8 2.8 33.4.7 44.7H377.2c-2.2-6.7-2.6-33-.7-44.7zm-.7-42.5v-43.6c7.1-2.1 118.8-2.9 135.4-1 2.2 7.5 2.4 35.1.1 44.6H375.8zm.1 262.6v-45h136.3v45H375.9zm1237.4 42.6c-4.7 13.3-8.9 25.5-13.2 37.7-.9 2.5-2 4.8-3 7.2h-60.8c-5.2-14.8-10.2-29.4-15.6-44.9h92.6zm404.5 134.3c-19.9-.1-34.7-15.5-34.6-36.1.1-20.2 15.6-36.1 35.1-36 19.4.2 35 16.5 34.9 36.4-.3 20.3-15.6 35.8-35.4 35.7zm26.9-36.2c-.2-16.8-11.3-28.2-27.1-28.2-12.2.1-26.6 9.4-26.5 28.9.1 14.1 9.4 28.1 27.2 28.1 15.9 0 26.6-11.9 26.4-28.8zm-493.6-10.8h31.5c-5.1 14.7-9.9 28.6-14.7 42.5-.6.1-1.2.1-1.9.2-4.8-13.7-9.6-27.4-14.9-42.7z"/><path d="M2014 630.5c-.7 4-1.4 7.7-2.2 12.2-2.2.1-4.6.2-7.5.4v-36.5c5.2 0 10.1-.1 14.9 0 5.2.1 10.1 1.2 12.4 6.5 2.1 4.9 1.5 9.7-2 14-.8 1-1.6 1.9-2.5 3.1 2.1 4 4.1 7.8 6.2 11.8-5.5 2.7-8.9 1.4-11.5-3.6-1.5-3-2.4-7-7.8-7.9zm-.5-6.8c4 .2 8 1.7 9.7-2.9.6-1.6-.4-5.3-1.6-5.9-2.3-1.1-5.4-.6-8.8-.7.2 3.9.4 6.4.7 9.5z"/></g></g></switch></svg>