<svg xmlns="http://www.w3.org/2000/svg" width="515.3" height="106.9"><path d="M129.2 100.5c-8 0-8-4.8-8-12.8-1.6-22.3-1.6-51-1.6-68.6 0-9.6 0-12.8 11.2-14.4h3.2V-.1c-4.8 1.6-11.2 1.6-14.4 1.6-3.2 0-6.4 0-12.8-1.6 0 8-4.8 16-11.2 30.3L81.4 60.6c-4.8 8-8 16-12.8 23.9-4.8-6.4-8-14.4-11.2-22.3L39.9 27.1C35.1 16 30.3 6.4 31.9 0c-6.4 1.6-9.6 1.6-14.4 1.6-3.2 0-6.4 0-11.2-1.6-1.5 1.6-1.5 3.2-1.5 4.8H8c9.6 1.6 11.2 3.2 9.6 14.4 0 8 0 20.7-1.6 35.1 0 14.4-1.6 23.9-1.6 33.5-1.6 11.2-3.2 12.8-9.6 12.8L0 102.1s0 3.2 1.6 3.2h33.5v-3.2l-6.4-1.6c-6.4 0-6.4-3.2-6.4-14.4V49.4c1.6-9.6 1.6-17.5 1.6-28.7 4.8 8 8 16 11.2 23.9L49.5 75c3.2 8 11.2 22.3 12.8 30.3 0 1.6 1.6 1.6 1.6 1.6 1.6 0 1.6 0 1.6-1.6C68.6 98.9 75 84.5 83 70.2l14.4-27.1c3.2-6.4 8-19.1 9.6-20.7v65.4c0 9.6 0 12.8-6.4 12.8l-4.8 1.6c-1.6 0-1.6 3.2 0 3.2H134v-3.2l-4.8-1.7zm44.7-65.4c-22.3 0-38.3 16-38.3 36.7 0 19.1 14.4 35.1 38.3 35.1 22.3 0 38.3-14.4 38.3-36.7 0-19.2-12.8-35.1-38.3-35.1zm3.2 67c-17.5 1.6-25.5-14.4-27.1-30.3-3.2-22.3 9.6-31.9 20.7-31.9 17.5-1.6 27.1 14.4 28.7 30.3 1.6 22.3-9.6 31.9-22.3 31.9zM475.4 16c0-8-4.8-14.4-11.2-14.4s-8 3.2-8 6.4 1.6 3.2 4.8 3.2c3.2 1.6 8 3.2 8 9.6 0 6.4-6.4 11.2-12.8 12.8 0 1.6 0 3.2 1.6 4.8 9.6-3.3 17.6-11.3 17.6-22.4zm27.1 51l-9.6-4.8c-6.4-3.2-9.6-6.4-9.6-12.8 0-4.8 3.2-11.2 12.8-11.2 8 0 12.8 9.6 14.4 14.4 0 1.6 3.2 1.6 3.2 0 0-6.4 0-12.8-1.6-16-4.8 0-9.6-1.6-14.4-1.6-16 0-25.5 8-25.5 19.1 0 8 6.4 14.4 14.4 19.1l6.4 3.2c9.6 4.8 11.2 9.6 11.2 14.4 0 8-4.8 11.2-12.8 11.2-11.2 0-17.5-11.2-19.1-16 0-1.6-3.2-1.6-3.2 0 0 8 1.6 14.4 3.2 16 1.6 1.6 8 4.8 17.5 4.8 16 0 25.5-8 25.5-19.1 0-11.1-6.4-17.5-12.8-20.7zM358.9 39.9c-6.4-3.2-14.4-3.2-23.9-3.2h-30.3c-1.6 1.6-1.6 3.2 0 4.8h4.8c3.2 0 3.2 3.2 3.2 14.4v31.9c0 11.2 0 12.8-6.4 12.8l-3.2 1.6c-1.6 0-1.6 3.2 0 3.2h35.2c8 0 16 0 23.9-4.8 12.8-6.4 19.1-17.5 19.1-30.3 0-14.5-8-25.6-22.4-30.4zm-20.7 60.6c-11.2 0-12.8-4.8-12.8-14.4V43c1.6-1.6 4.8-1.6 9.6-1.6 17.5 0 31.9 9.6 31.9 28.7 0 19.2-9.6 30.4-28.7 30.4zm110.1-63.8h-22.4c-1.6 0-1.6 3.2-1.6 3.2h3.2c4.8 1.6 4.8 3.2 1.6 6.4L422.7 59c-1.6 4.8-4.8 8-8 12.8-1.6-4.8-3.2-8-6.4-12.8L402 47.9c-1.6-4.8-1.6-6.4 1.6-8h3.2c1.6 0 0-3.2 0-3.2H378c-1.6 0-1.6 3.2 0 3.2l3.2 1.6c4.8 0 6.4 1.6 9.6 8L402 70.2c4.8 8 4.8 9.6 4.8 14.4v4.8c0 9.6 0 11.2-8 11.2l-3.2 1.6c-1.6 0-1.6 3.2 0 3.2h33.5c1.6 0 1.6-3.2 1.6-3.2l-4.8-1.6c-6.4 0-8-1.6-8-11.2v-8c0-4.8 1.6-6.4 6.4-14.4l9.6-16c4.8-8 6.4-9.6 11.2-9.6l3.2-1.6c1.5.1 1.5-3.1 0-3.1zm-189.9-1.6c-22.3 0-38.3 16-38.3 36.7 0 19.1 14.4 35.1 38.3 35.1 22.3 0 38.3-14.4 38.3-36.7 0-19.2-12.8-35.1-38.3-35.1zm3.2 67c-17.5 1.6-25.5-14.4-27.1-30.3-3.2-22.3 9.6-31.9 20.7-31.9 17.5-1.6 27.1 14.4 28.7 30.3 1.6 22.3-9.5 31.9-22.3 31.9z" fill-rule="evenodd" clip-rule="evenodd" fill="#131A26"/></svg>