<svg xmlns="http://www.w3.org/2000/svg" width="150" height="89.5"><g fill-rule="evenodd" clip-rule="evenodd"><path fill="#121A26" d="M90.5 42.6c.3.3.6 1.2 1 1.7-10.2 6.6-32.7 21-45.2 30.3 4.7 4.7 10.6 8.2 17.3 10.2 21.9 6.4 45-6.2 51.4-28.1 2.9-10 1.9-20.1-2.1-28.8-3.2 2.9-6.8 5.8-10.7 8.7-.1 0-.2.1-.4.2-3.1 2.3-6.3 4.7-9.6 6.9-.3-.6-.7-1.1-1-1.7 2.3-1.6 4.6-3.2 6.8-4.8l.1-.1c2.6-1.8 5-3.6 7.3-5.4-4.6 2.7-9.5 4.9-14.4 6.7v-2.6c-.5.4-1.1.8-1.6 1.3-.7 0-1.1-.3-1.9-.5-.6-.7-1.1-1.4-1.7-2.1 7.4-3.2 15.2-7.3 23.4-13.2C104.1 13.8 96.4 7.9 87 5.1c-21.9-6.4-45 6.2-51.5 28.1-1.9 6.6-2.1 13.2-.9 19.5 2.5-1.3 4.9-2.5 7.4-3.5v.8l-1 1.3c-2.1.7-4.2 1.4-6.2 2.2 1.6 7.6 5.4 14.6 10.7 20.1 11.4-9.2 33.2-23.7 45-31z"/><path fill="#231F20" d="M52.7 45.4c-.1 0-.2 0-.3.1l.3.5v-.6z"/><path fill="#AEACAD" d="M47 47.3c-.9.3-1.8.7-2.7 1v2.1c1.3-.3 2.6-.7 4-1L47 47.3zm-5.1 2c-5.3 2.2-10.4 4.8-15.4 8.5 4.2-2.6 9.1-4.6 14.4-6.3l.9-1.4.1-.8zm44-14.8c.6.7 1.1 1.4 1.6 2.1.8.2 1.2.5 1.9.5.5-.4 1.1-.8 1.6-1.3v2.6c4.8-1.8 9.7-4 14.4-6.7-2.3 1.8-4.7 3.5-7.3 5.3l-.1.1c-2.2 1.6-4.5 3.2-6.8 4.8.3.6.7 1.1 1 1.7 3.3-2.3 6.6-4.6 9.6-6.9.1-.1.2-.2.4-.2 13.9-10.5 24.6-21.2 25.2-30.7-15.1 15-28.7 23.2-41.5 28.7zm-24 11.9l.1-.5c-.7-1-1.3-1.9-1.8-2.7-1.8.5-3.5 1-5.2 1.5v3.2l6.9-1.5zm28.5-3.8c.3.3.7 1.2 1.1 1.7C78 52.9 43.3 75.2 38 81.4c.9-4.9 36.3-28.8 52.4-38.8zm-29 .2c.3.6.7 1.2 1 1.8l.7-2.2c-.6.1-1.1.3-1.7.4zm17.6-.4v-.8c0-2.4 2.5-5 5.6-5.2H86c-.4-.5-.8-1-1.2-1.4-4.5 1.9-8.7 3.4-13 4.7l1.4 4.2c2-.5 3.9-1 5.8-1.5z"/><path fill="#231F20" d="M88.3 39.5c-.1-.2-.3-.5-.5-.7-2.2-.5-4 .1-4 1 0 .4.2.7.5.9 1.4-.3 2.7-.7 4-1.2z"/><path fill="#FFF" d="M99 36.5c-.3.2-.7.5-1 .7l-.7-.7H99zM80.5 48.9c-.4.3-.8.6-1.2.8v-2.2c.3.6.6 1 1.2 1.4zM71 57.6c.4-.3.8-.6 1.3-.8 1.3 1.1 2.6 2.1 3.4 2.6 1.8 1.3 1 2.5.5 2.8-.6.3-2 0-2.7-1.2-.2-.5-1.3-2-2.3-3.2-.2-.1-.2-.2-.2-.2zm15.5-10.2c1.8-1.2 3.4-2.2 4.9-3.1.8.8 1.3 2 1.3 3.3.1 2.7-3.4 4.5-6.3 4.7-2.8.2-3.6 0-5.2-.5-.6.4-1.3.8-1.9 1.3v-1c1.2-.7 2.3-1.5 3.4-2.2 2 .6 4.1.5 4.5-.7.3-.9-.1-1.4-.7-1.8z"/><path fill="#FFF" d="M91.5 44.3c1.4 2.3 2.7 4.6 3.6 6.6l-1.4 1.2h2c.7 1.7 1.1 3.2 1.2 4.3.6 5 1.3 7.5-.7 10.2-1.8 2.2-4.7 2.6-11.7.1 3.4 2.7 12.9 4.7 13.9-3.3.4-3.3-.3-7.3-1.9-11.3h3L98 50.4l.6-2h5l.7 2-1.5 1.8h9.9l-2.3-2-4.6-13.5h-3.4c-1 .7-2.1 1.5-3.2 2.3l-3.3 11.4c-1.6-3.7-3.7-7.4-6.1-10.8.6.3 1 .7 1.5 1.1V36c-.5.4-1.1.8-1.7 1.3-.7 0-1.1-.3-1.9-.5-2-2.7-4.3-5.3-6.5-7.4-9.1-8.7-18-14.1-24-10.6s-.9 17.1 1.9 22.2c.7 1.5 1.9 3.3 3.2 5.1L61 50.4l-2 1.8h5.8L63 50.3l.6-2c2.6 3.7 5.2 7.1 6 7.9.3-.2.7-.5 1-.7-.6-.5-1.2-1.1-1.7-1.6-.7-.7-2.3-2.7-4.2-5.5h3.8l.7 1.9-1.6 1.9h8.2c.3-.2.7-.5 1-.7l-1.5-1.4-4.7-13.4h-8.3c0-.1 1.9 1.9 1.9 1.9l-1.9 6.2c-2.9-4.9-5.9-10.8-6.8-15.7-1.8-9.3 3.4-12.6 12.5-8.2 5.6 2.7 12.3 8.8 17.8 15.7h-1.4c-3.2.1-5.6 2.7-5.7 5.2 0 2.4 3 4 4.8 4.7.1 0 .3.1.4.2 2-1.3 3.9-2.4 5.6-3.5-.4-.2-.9-.5-1.3-.7-2.4-.9-4.5-1.2-4.6-2.5 0-.9 1.9-1.5 4.1-1l2.6 3.7 1.2 1.6z"/><path fill="#FFF" d="M40.4 36.5h6.8l5.5 9.5v-7.7l-1.4-1.8h5.3l-1.5 1.8v11.6l1.7 2.2h-7.1l-5.4-9.3v7.7l1.6 1.6h-5.4l1.4-2V38.4l-1.5-1.9z"/><path fill="#231F20" d="M64.3 46.2h3.3l-1.8-5.4s-1.4 5.4-1.5 5.4z"/><path fill="#AEACAD" d="M66.1 41.5c-.1 0-.3.1-.5.1-.3 1.2-1 3.4-1.3 4.3 1-.2 2-.5 2.9-.7l-1.1-3.7z"/><path fill="#231F20" d="M99.2 46.2h3.3l-1.8-5.3c.1 0-1.4 5.3-1.5 5.3z"/><path fill="#FFF" d="M75 6.4c.2.1.4.4.3.6-.1.3-.4.4-.6.4-.3-.1-.4-.4-.4-.7.2-.2.5-.3.7-.3zM63.2 66.2c.3.1.6.5.4.8-.1.4-.4.6-.8.5-.3-.1-.6-.5-.4-.8.1-.5.5-.6.8-.5zM51 65.9c.3.1.6.5.4.8-.1.3-.5.5-.8.4-.3-.1-.6-.5-.4-.8.1-.3.4-.5.8-.4zm9.5-5.5c.2.1.4.4.3.6-.1.2-.3.4-.6.3-.2-.1-.4-.4-.3-.6.1-.2.4-.3.6-.3zM56 64.6c.2 0 .3.3.2.5 0 .2-.3.3-.5.2-.2 0-.3-.3-.2-.5.1-.1.3-.2.5-.2zm2.9 5c.2.1.4.3.3.6-.1.2-.3.4-.6.3-.2 0-.4-.3-.3-.5.1-.3.3-.4.6-.4zm4.8.9c.2 0 .3.2.2.4 0 .1-.2.3-.4.2-.2-.1-.3-.3-.2-.4 0-.2.3-.3.4-.2zm29.4-10.8c.2.1.4.3.3.5 0 .2-.3.3-.5.3s-.3-.3-.3-.5c.1-.2.3-.3.5-.3zm.1 4.8c.2 0 .4.3.3.6-.1.2-.4.4-.6.3-.2 0-.4-.3-.3-.5.1-.3.3-.4.6-.4zm3.1-4.1c.2 0 .4.4.3.7 0 .3-.4.5-.7.4-.3-.1-.4-.4-.4-.7.2-.3.6-.5.8-.4zm0-3.2c.3.1.6.5.5.8-.1.3-.5.6-.8.5-.4-.1-.6-.5-.5-.8.1-.4.4-.6.8-.5zm6.1-.1c.2 0 .4.4.3.6 0 .2-.4.4-.6.3-.3-.1-.4-.4-.4-.6.2-.2.5-.4.7-.3zm3.7 3.2c.2.1.4.4.3.7 0 .2-.3.4-.6.3-.3 0-.4-.3-.4-.6.1-.3.4-.4.7-.4zm-3.9 3.6c.2 0 .4.4.3.6-.1.2-.4.4-.6.3-.2-.1-.4-.4-.3-.6 0-.2.3-.4.6-.3zm3.4 2.2c.2 0 .4.3.3.6 0 .2-.3.4-.6.3-.2-.1-.4-.4-.3-.6 0-.2.3-.4.6-.3zm2.6-6.7c.2.1.4.4.4.7-.1.3-.4.5-.7.4-.3-.1-.5-.4-.4-.7.1-.3.4-.5.7-.4zm-6.7-4.2c.2 0 .3.2.2.4 0 .1-.2.2-.4.2-.1 0-.2-.2-.2-.3.1-.2.2-.3.4-.3zm-6.6 18.2c.3.1.5.5.4.8-.1.3-.5.5-.8.4-.3-.1-.5-.5-.4-.8s.5-.5.8-.4zM60.3 52.8c.2 0 .3.2.2.4 0 .2-.3.3-.5.3-.2-.1-.3-.3-.2-.5 0-.1.3-.3.5-.2zM49.1 64.9c.2 0 .4.3.3.6-.1.3-.3.4-.6.3-.3 0-.4-.3-.3-.6.1-.2.4-.3.6-.3zm.6-2.4c.2.1.4.3.3.6-.1.2-.3.4-.6.3-.2 0-.4-.3-.3-.6 0-.3.3-.4.6-.3zm-4.5.5c.2.1.3.3.2.4 0 .2-.2.3-.4.2-.2 0-.3-.2-.2-.4.1-.1.3-.3.4-.2zm27.2-52.1c.3 0 .4.3.3.6-.1.3-.4.4-.6.3-.3 0-.4-.3-.3-.6 0-.3.3-.4.6-.3zm4.8.7c.1 0 .2.2.2.4 0 .1-.2.2-.4.2-.1 0-.2-.2-.1-.4.1-.1.2-.2.3-.2zm.2 4.9c.1 0 .2.2.2.3 0 .2-.2.2-.4.2-.1 0-.2-.2-.2-.3.1-.1.3-.2.4-.2zm-10.3-2.1c.1 0 .2.2.2.3 0 .2-.2.3-.3.2-.2 0-.2-.2-.2-.4 0 0 .2-.1.3-.1zm.9.7c.2 0 .3.2.2.4 0 .1-.2.2-.4.2-.1 0-.2-.2-.2-.4.1-.1.2-.2.4-.2zm-8 7.4c.2 0 .3.2.2.4 0 .1-.2.2-.4.2-.1 0-.2-.2-.2-.4.1-.2.3-.2.4-.2zm9.3-6.8c.2 0 .3.2.2.4 0 .2-.2.3-.5.3-.2 0-.3-.2-.2-.5.1-.2.3-.3.5-.2zm-1.6 1.4c.2.1.3.3.3.5-.1.2-.3.3-.5.2-.2 0-.3-.2-.2-.5 0-.2.2-.2.4-.2zm6-2.7c.2.1.4.3.3.5 0 .3-.3.4-.6.3-.2-.1-.3-.3-.2-.6 0-.2.2-.2.5-.2zm-12.3 10c.2.1.4.3.3.5-.1.3-.3.4-.6.3-.2-.1-.4-.3-.3-.6.1-.2.3-.3.6-.2zM83 19.3c.3.1.5.4.4.7-.1.3-.4.5-.7.4-.3-.1-.4-.4-.3-.7 0-.3.3-.5.6-.4zm-.7-8.8l.4-3.2.3 3.2c.1 0 .2.1.2.2l2.2.2-2.1.3c0 .2-.1.3-.3.4l-.3 3.3-.3-3.3c-.1-.1-.2-.2-.3-.4l-2.2-.1 2.2-.3c.1-.2.2-.3.2-.3zM63.7 22.7l.3-2 .3 2c.1 0 .2.1.2.2l1.6.2-1.5.3c0 .1-.1.3-.3.3l-.3 2.7-.3-2.7-.3-.3-1.4-.1 1.4-.4c.1-.1.2-.2.3-.2zm42.8 33.9l.3-2 .3 2c.1 0 .2.1.2.2l1.5.3-1.4.2c0 .1-.1.3-.3.4l-.3 2-.3-2c-.1-.1-.2-.2-.3-.4l-1.9-.2 1.9-.3c.1 0 .2-.1.3-.2zm-3.8 9.2l.3-1.2.4 1.2c.1 0 .1.1.2.2l1.1.4-1 .1c0 .1-.2.3-.3.4l-.3 1.2-.4-1.3c-.1 0-.2-.2-.3-.3l-1.2-.1 1.3-.3c.1-.1.1-.2.2-.3zm-42.8 8.4l.2-1.9.5 1.9c.1 0 .2.1.2.2l1.6.2-1.6.3c0 .2-.1.3-.3.4l-.3 2-.3-2c-.1-.1-.2-.2-.2-.4l-1.6-.2 1.6-.3c0-.1.1-.2.2-.2zm13.2-4.7c.3.1.5.4.4.7-.1.3-.4.5-.7.4-.3-.1-.5-.4-.4-.7.1-.3.4-.5.7-.4zm7.9-2.7c.2 0 .3.3.3.5-.1.2-.3.4-.5.3-.2 0-.3-.3-.3-.5 0-.3.2-.4.5-.3z"/></g></svg>