<svg aria-hidden="true" style="position:absolute;width:0;height:0" xmlns="http://www.w3.org/2000/svg" overflow="hidden"><defs><symbol id="icon-history" viewBox="0 0 36 36"><path d="M18 12.023h2.25v6.328l5.273 3.164-1.125 1.828L18 19.476v-7.453zM19.477 4.5q5.555 0 9.527 3.938t3.973 9.563-3.973 9.563-9.527 3.938q-2.32 0-5.098-1.16t-4.395-2.777l2.109-2.18q3.094 3.094 7.383 3.094 4.359 0 7.453-3.059t3.094-7.418-3.094-7.418-7.453-3.059-7.418 3.059-3.059 7.418h4.5l-6.047 6.047-.141-.211-5.836-5.836h4.5q0-5.625 3.973-9.563t9.527-3.938z"/></symbol><symbol id="icon-security" viewBox="0 0 36 36"><path d="M18 1.477l13.5 6.047v9q0 6.258-3.867 11.426T18 34.524q-5.766-1.406-9.633-6.574T4.5 16.524v-9zM18 18v13.43q4.148-1.336 7.031-5.027t3.445-8.402H17.999zm0 0V4.781L7.523 9.422V18H18z"/></symbol><symbol id="icon-info" viewBox="0 0 36 36"><path d="M34.5 18c0-4.556-1.848-8.683-4.833-11.667S22.555 1.5 18 1.5 9.317 3.348 6.333 6.333 1.5 13.445 1.5 18s1.848 8.683 4.833 11.667S13.445 34.5 18 34.5s8.683-1.848 11.667-4.833S34.5 22.555 34.5 18zm-3 0c0 3.729-1.509 7.101-3.954 9.546S21.729 31.5 18 31.5s-7.101-1.509-9.546-3.954S4.5 21.729 4.5 18s1.509-7.101 3.954-9.546S14.271 4.5 18 4.5s7.101 1.509 9.546 3.954S31.5 14.271 31.5 18zm-12 6v-6a1.5 1.5 0 00-3 0v6a1.5 1.5 0 003 0zM18 13.5a1.5 1.5 0 10-.001-3.001A1.5 1.5 0 0018 13.5z"/></symbol><symbol id="icon-tag" viewBox="0 0 30 36"><path d="M9 9c0-1.426-1.145-2.571-2.571-2.571S3.858 7.574 3.858 9s1.145 2.571 2.571 2.571S9 10.426 9 9zm21.435 11.571c0 .683-.281 1.346-.743 1.808l-9.864 9.884c-.482.462-1.145.743-1.828.743s-1.346-.281-1.808-.743L1.828 17.879C.803 16.875 0 14.926 0 13.5V5.143a2.589 2.589 0 012.571-2.571h8.357c1.426 0 3.375.804 4.4 1.828l14.364 14.344c.462.482.743 1.145.743 1.828z"/></symbol><symbol id="icon-external-link" viewBox="0 0 36 36"><path d="M28.286 18.643v6.429a5.788 5.788 0 01-5.786 5.786H5.786A5.788 5.788 0 010 25.072V8.358a5.788 5.788 0 015.786-5.786h14.143c.362 0 .643.281.643.643v1.286a.634.634 0 01-.643.643H5.786a3.223 3.223 0 00-3.214 3.214v16.714a3.223 3.223 0 003.214 3.214H22.5a3.223 3.223 0 003.214-3.214v-6.429c0-.362.281-.643.643-.643h1.286c.362 0 .643.281.643.643zM36 1.286v10.286c0 .703-.583 1.286-1.286 1.286-.342 0-.663-.141-.904-.382L30.274 8.94 17.176 22.038c-.121.121-.301.201-.462.201s-.342-.08-.462-.201l-2.29-2.29a.69.69 0 01-.201-.462c0-.161.08-.342.201-.462L27.06 5.726 23.524 2.19a1.28 1.28 0 01-.382-.904c0-.703.583-1.286 1.286-1.286h10.286C35.417 0 36 .583 36 1.286z"/></symbol><symbol id="icon-chat" viewBox="0 0 41 36"><path d="M16.875 0c9.32 0 16.875 6.114 16.875 13.656s-7.555 13.656-16.875 13.656c-.895 0-1.773-.057-2.631-.166-3.625 3.61-7.811 4.258-11.994 4.353v-.884c2.259-1.102 4.078-3.11 4.078-5.405 0-.32-.025-.634-.071-.942C2.441 21.764 0 17.94 0 13.655 0 6.113 7.555-.001 16.875-.001zm18.141 30.61c0 1.967 1.277 3.688 3.234 4.633V36c-3.626-.081-6.953-.636-10.095-3.731-.743.093-1.504.142-2.28.142-3.356 0-6.448-.906-8.916-2.427 5.086-.018 9.888-1.647 13.529-4.594 1.835-1.485 3.283-3.228 4.304-5.18 1.082-2.07 1.63-4.274 1.63-6.553 0-.367-.016-.733-.044-1.096 2.551 2.107 4.122 4.979 4.122 8.145 0 3.673-2.115 6.951-5.422 9.097a5.38 5.38 0 00-.062.807z"/></symbol><symbol id="icon-chevron-small-down" viewBox="0 0 36 36"><path d="M24.152 14.146a1.252 1.252 0 011.76 0c.486.482.49 1.262 0 1.744l-7.034 6.894a1.254 1.254 0 01-1.762 0l-7.034-6.894a1.225 1.225 0 010-1.744 1.252 1.252 0 011.76 0L18 19.8l6.152-5.654z"/></symbol><symbol id="icon-chevron-small-up" viewBox="0 0 36 36"><path d="M11.848 21.854c-.488.482-1.276.482-1.76 0s-.49-1.262 0-1.744l7.034-6.894a1.254 1.254 0 011.762 0l7.034 6.894a1.225 1.225 0 010 1.744 1.254 1.254 0 01-1.762 0L18 16.2l-6.152 5.654z"/></symbol><symbol id="icon-bell" viewBox="0 0 36 36"><path d="M26.37 15.322C22.266 6.489 20.131 3.134 13.426 3.275c-2.389.049-1.816-1.732-3.638-1.057-1.818.675-.257 1.663-2.119 3.191-5.224 4.289-4.743 8.257-2.32 17.712 1.021 3.983-2.461 4.178-1.084 8.037 1.006 2.815 8.422 3.994 16.245 1.093 7.825-2.903 12.755-8.665 11.749-11.48-1.377-3.861-4.16-1.73-5.89-5.449zm-6.707 14.549c-6.988 2.592-12.73 1.069-12.973.391-.418-1.17 2.255-5.069 10.244-8.033s12.447-1.865 12.913-.56c.275.772-3.195 5.609-10.184 8.203zm-2.246-6.289c-3.652 1.355-6.19 2.905-7.835 4.3 1.157 1.051 3.325 1.307 5.483.506 2.749-1.017 4.439-3.359 3.771-5.227-.009-.023-.02-.041-.029-.065-.452.148-.914.308-1.39.486z"/></symbol><symbol id="icon-check" viewBox="0 0 36 36"><path d="M14.929 30.596a2.503 2.503 0 01-2-.995l-6.431-8.498a2.505 2.505 0 01.486-3.512 2.505 2.505 0 013.515.486l4.232 5.587 10.64-17.086a2.512 2.512 0 013.458-.801 2.508 2.508 0 01.803 3.456L17.061 29.411a2.502 2.502 0 01-2.016 1.181c-.04.004-.076.004-.115.004z"/></symbol><symbol id="icon-login" viewBox="0 0 36 36"><path d="M25.2 18L14.4 9v5.4H1.8v7.2h12.6V27l10.8-9zm5.4 12.6H16.2v3.6h14.4c1.98 0 3.6-1.62 3.6-3.6V5.4c0-1.98-1.62-3.6-3.6-3.6H16.2v3.6h14.4v25.2z"/></symbol><symbol id="icon-menu" viewBox="0 0 36 36"><path d="M29.52 16.2H6.48c-.994 0-1.08.805-1.08 1.8s.086 1.8 1.08 1.8h23.04c.994 0 1.08-.805 1.08-1.8s-.086-1.8-1.08-1.8zm0 7.2H6.48c-.994 0-1.08.805-1.08 1.8S5.486 27 6.48 27h23.04c.994 0 1.08-.805 1.08-1.8s-.086-1.8-1.08-1.8zM6.48 12.6h23.04c.994 0 1.08-.805 1.08-1.8S30.514 9 29.52 9H6.48c-.994 0-1.08.805-1.08 1.8s.086 1.8 1.08 1.8z"/></symbol><symbol id="icon-facebook" viewBox="0 0 36 36"><path d="M18 .72C8.456.72.72 8.456.72 18S8.456 35.28 18 35.28 35.28 27.544 35.28 18 27.544.72 18 .72zm4.093 11.941h-2.597c-.308 0-.65.405-.65.943v1.876h3.249l-.491 2.675h-2.758v8.03h-3.065v-8.03H13V15.48h2.781v-1.573c0-2.257 1.566-4.091 3.715-4.091h2.597v2.846z"/></symbol><symbol id="icon-linkedin" viewBox="0 0 36 36"><path d="M18 .72C8.456.72.72 8.456.72 18S8.456 35.28 18 35.28 35.28 27.544 35.28 18 27.544.72 18 .72zm-4.23 24.442h-3.499V13.901h3.499v11.261zm-1.771-12.643c-1.105 0-1.82-.783-1.82-1.751 0-.988.736-1.748 1.865-1.748s1.82.76 1.841 1.748c0 .968-.713 1.751-1.886 1.751zM26.55 25.162h-3.499v-6.241c0-1.453-.508-2.439-1.773-2.439-.967 0-1.541.668-1.795 1.31-.094.229-.117.553-.117.875v6.493h-3.501v-7.668c0-1.406-.045-2.581-.092-3.593h3.04l.16 1.564h.07c.461-.734 1.589-1.818 3.478-1.818 2.302 0 4.028 1.543 4.028 4.858v6.658z"/></symbol><symbol id="icon-twitter" viewBox="0 0 36 36"><path d="M18 .72C8.456.72.72 8.456.72 18S8.456 35.28 18 35.28 35.28 27.544 35.28 18 27.544.72 18 .72zm7.029 14.155c.007.148.009.295.009.439 0 4.5-3.422 9.686-9.682 9.686a9.605 9.605 0 01-5.216-1.53c.265.032.536.045.812.045a6.816 6.816 0 004.226-1.456 3.411 3.411 0 01-3.179-2.362c.207.038.419.059.639.059.31 0 .612-.041.896-.119a3.406 3.406 0 01-2.731-3.337v-.041c.459.254.985.409 1.543.427a3.403 3.403 0 01-1.514-2.835c0-.623.167-1.21.461-1.712a9.678 9.678 0 007.015 3.559 3.405 3.405 0 015.8-3.106 6.852 6.852 0 002.16-.826 3.42 3.42 0 01-1.496 1.885 6.847 6.847 0 001.955-.538 6.901 6.901 0 01-1.697 1.762z"/></symbol></defs></svg>